<?xml version="1.0" standalone="no"?>
<!DOCTYPE svg PUBLIC "-//W3C//DTD SVG 20010904//EN"
 "http://www.w3.org/TR/2001/REC-SVG-20010904/DTD/svg10.dtd">
<svg version="1.0" xmlns="http://www.w3.org/2000/svg"
 width="700.000000pt" height="700.000000pt" viewBox="0 0 700.000000 700.000000"
 preserveAspectRatio="xMidYMid meet">
<metadata>
Created by potrace 1.14, written by Peter Selinger 2001-2017
</metadata>
<g transform="translate(0.000000,700.000000) scale(0.100000,-0.100000)"
fill="#000000" stroke="none">
<path d="M3285 6994 c-22 -2 -89 -9 -150 -14 -577 -56 -1175 -282 -1655 -623
-235 -168 -530 -444 -696 -652 -429 -536 -681 -1137 -758 -1805 -76 -653 35
-1317 319 -1907 700 -1456 2277 -2239 3860 -1918 1462 297 2573 1495 2766
2985 121 932 -146 1880 -737 2625 -116 146 -430 458 -574 569 -518 402 -1104
643 -1750 722 -118 14 -539 27 -625 18z m544 -559 c261 -29 513 -92 752 -188
173 -70 206 -87 251 -134 101 -104 94 -271 -14 -369 -54 -48 -101 -66 -173
-66 -50 0 -79 8 -175 49 -200 88 -432 153 -655 185 -137 20 -493 16 -640 -6
-968 -146 -1748 -856 -1985 -1806 -126 -504 -88 -1048 105 -1523 326 -798
1036 -1356 1886 -1481 229 -34 487 -30 729 10 593 99 1144 436 1504 918 146
196 235 353 321 571 55 138 84 183 140 220 118 77 265 50 352 -63 87 -114 68
-218 -102 -567 -285 -584 -747 -1048 -1330 -1335 -413 -204 -749 -287 -1203
-297 -342 -8 -576 19 -867 102 -491 140 -905 384 -1270 750 -580 580 -887
1357 -862 2185 17 564 181 1081 490 1550 352 534 868 938 1468 1148 209 73
410 120 629 146 157 19 483 19 649 1z m-69 -2018 l0 -864 465 -437 c256 -240
465 -440 465 -445 0 -8 -122 -141 -277 -303 l-74 -77 -550 516 -549 516 0 978
0 979 260 0 260 0 0 -863z"/>
</g>
</svg>
